<?xml version="1.0" encoding="UTF-8" standalone="no"?>
<svg version="1.1" xmlns="http://www.w3.org/2000/svg" xmlns:xlink="http://www.w3.org/1999/xlink" width="803" height="259">
	<g id="dp_dp001" transform="matrix(1,0,0,1,-317.84,-676.849)">
		<path id="dp_path002" fill="#e34a2f" fill-rule="evenodd" stroke="none" stroke-width="0" d="M 447.84,676.849 C 519.637,676.849 577.839,734.828 577.839,806.349 C 577.839,877.869 519.637,935.848 447.84,935.848 C 376.043,935.848 317.84,877.869 317.84,806.349 C 317.84,734.828 376.043,676.849 447.84,676.849 Z "/>
		<path id="dp_path003" fill="white" fill-rule="evenodd" stroke="none" stroke-width="0" d="M 512.731,806.759 L 512.731,866.248 L 489.619,866.248 L 489.619,807.581 C 489.619,793.181 484.641,779.669 474.663,767.048 C 468.596,759.403 458.885,755.581 445.529,755.581 C 425.575,755.581 411.863,765.292 404.373,784.692 C 402.24,790.203 401.173,795.648 401.173,800.981 C 401.173,809.536 403.573,817.803 408.373,825.825 C 413.173,833.825 419.396,839.204 427.041,841.981 C 434.685,844.737 440.729,846.381 445.175,846.915 C 457.085,846.915 467.308,844.115 475.841,838.515 L 475.841,861.915 C 466.596,865.981 456.375,868.025 445.175,868.025 C 425.975,868.025 409.84,861.804 396.773,849.359 C 383.707,836.937 377.173,821.203 377.173,802.181 C 377.173,778.003 387.129,758.915 407.063,744.869 C 418.263,737.048 430.908,733.136 444.952,733.136 C 466.485,733.136 483.285,740.159 495.396,754.203 C 506.952,767.359 512.731,784.892 512.731,806.759 Z "/>
		<path id="dp_path004" fill="#312430" fill-rule="evenodd" stroke="none" stroke-width="0" d="M 735.841,807.531 L 735.841,855.121 L 717.352,855.121 L 717.352,808.188 C 717.352,796.668 713.371,785.859 705.388,775.761 C 700.535,769.645 692.765,766.588 682.081,766.588 C 666.117,766.588 655.148,774.357 649.157,789.877 C 647.451,794.285 646.597,798.641 646.597,802.908 C 646.597,809.752 648.517,816.365 652.357,822.784 C 656.197,829.184 661.175,833.485 667.291,835.708 C 673.405,837.912 678.241,839.228 681.797,839.655 C 691.325,839.655 699.504,837.415 706.331,832.935 L 706.331,851.655 C 698.935,854.908 690.757,856.544 681.797,856.544 C 666.437,856.544 653.531,851.565 643.077,841.611 C 632.624,831.672 627.397,819.085 627.397,803.868 C 627.397,784.525 635.361,769.255 651.308,758.019 C 660.268,751.761 670.384,748.632 681.619,748.632 C 698.845,748.632 712.285,754.251 721.975,765.485 C 731.219,776.011 735.841,790.037 735.841,807.531 Z "/>
		<path id="dp_path005" fill="#312430" fill-rule="evenodd" stroke="none" stroke-width="0" d="M 754.152,855.121 L 754.152,789.024 C 754.152,781.645 756.143,774.748 760.125,768.348 C 764.108,761.965 769.441,757.272 776.125,754.285 C 782.241,751.584 788.072,750.232 793.619,750.232 C 805.565,750.232 814.952,754.695 821.779,763.601 L 824.765,760.632 C 831.735,753.699 840.552,750.232 851.219,750.232 C 858.472,750.232 865.405,752.188 872.019,756.099 C 878.632,760.011 883.219,765.184 885.779,771.655 C 888.339,778.125 889.619,783.921 889.619,789.024 L 889.619,855.121 L 871.308,855.121 L 871.308,789.201 C 871.308,778.251 867.308,771.565 859.325,769.148 C 856.055,768.152 853.121,767.655 850.561,767.655 C 844.712,767.655 840.036,769.681 836.552,773.735 C 833.049,777.788 831.308,782.801 831.308,788.775 L 831.308,855.121 L 812.463,855.121 L 812.463,788.775 C 812.463,782.659 810.721,777.611 807.255,773.628 C 803.769,769.645 799.059,767.655 793.103,767.655 C 786.721,767.655 781.689,769.645 777.992,773.628 C 774.312,777.611 772.463,782.801 772.463,789.201 L 772.463,855.121 Z "/>
		<path id="dp_path006" fill="#312430" fill-rule="evenodd" stroke="none" stroke-width="0" d="M 922.509,802.428 C 922.509,812.241 925.78,820.811 932.323,828.135 C 938.864,835.459 947.024,839.121 956.837,839.121 C 966.509,839.121 974.597,835.531 981.14,828.348 C 987.683,821.165 990.953,812.668 990.953,802.855 C 990.953,786.357 983.629,775.121 968.997,769.148 C 964.731,767.441 960.607,766.588 956.624,766.588 C 950.224,766.588 944.216,768.401 938.597,772.028 C 932.997,775.655 928.909,780.348 926.349,786.108 C 923.789,791.868 922.509,797.308 922.509,802.428 Z M 903.309,802.001 C 903.309,786.801 908.323,774.197 918.349,764.188 C 928.376,754.179 940.98,749.165 956.197,749.165 C 976.109,749.165 991.237,757.184 1001.62,773.237 C 1007.31,782.055 1010.15,791.851 1010.15,802.641 C 1010.15,816.988 1003.75,830.837 990.953,844.188 C 983.149,852.419 971.557,856.544 956.197,856.544 C 941.123,856.544 928.553,851.245 918.456,840.668 C 908.357,830.091 903.309,817.201 903.309,802.001 Z "/>
		<path id="dp_path007" fill="#312430" fill-rule="evenodd" stroke="none" stroke-width="0" d="M 1023.81,855.121 L 1023.81,797.432 C 1023.81,782.891 1028.18,771.424 1036.94,763.015 C 1045.69,754.605 1057.39,750.411 1072.05,750.411 C 1086.72,750.411 1098.45,754.571 1107.27,762.908 C 1116.11,771.245 1120.52,782.748 1120.52,797.432 L 1120.52,855.121 L 1102.03,855.121 L 1102.03,797.219 C 1102.03,788.384 1099.33,781.184 1093.9,775.637 C 1088.48,770.072 1081.35,767.299 1072.5,767.299 C 1063.52,767.299 1056.2,770.037 1050.56,775.531 C 1044.93,781.005 1042.12,788.241 1042.12,797.219 L 1042.12,855.121 Z "/>
	</g>
</svg>